<svg width="833" height="532" fill="none" xmlns="http://www.w3.org/2000/svg"><path fill-rule="evenodd" clip-rule="evenodd" d="M809.488 2.137H24.443c-11.805 0-21.375 9.57-21.375 21.375v484.572c0 11.805 9.57 21.374 21.375 21.374h785.045c11.805 0 21.375-9.569 21.375-21.374V23.512c0-11.805-9.57-21.375-21.375-21.375zM24.443 0C11.457 0 .93 10.527.93 23.512v484.572c0 12.985 10.526 23.512 23.512 23.512h785.045c12.985 0 23.512-10.527 23.512-23.512V23.512C833 10.527 822.473 0 809.488 0H24.443z" fill="url(#paint0_linear)"/><path fill-rule="evenodd" clip-rule="evenodd" d="M795.564 373.977V83.118a14.96 14.96 0 00-4.687-10.875l-30.548-28.864a14.962 14.962 0 00-10.276-4.087H81.25c-4.02 0-7.87 1.617-10.685 4.487l-27.92 28.48a14.962 14.962 0 00-4.278 10.475v291.243c0 8.263 6.699 14.962 14.962 14.962h727.272c8.264 0 14.963-6.699 14.963-14.962zM41.119 70.763a17.1 17.1 0 00-4.89 11.97v291.244c0 9.444 7.657 17.1 17.1 17.1h727.272c9.444 0 17.1-7.656 17.1-17.1V83.118c0-4.703-1.937-9.199-5.356-12.429l-30.548-28.864c-3.175-3-7.377-4.67-11.744-4.67H81.25a17.1 17.1 0 00-12.211 5.128l-27.92 28.48z" fill="url(#paint1_linear)"/><path d="M41.216 23.546c0 9.315-7.552 16.867-16.868 16.867-9.316 0-16.868-7.552-16.868-16.867 0-9.316 7.552-16.868 16.868-16.868 9.316 0 16.868 7.552 16.868 16.867z" fill="url(#paint2_linear)"/><path d="M42.486 507.291c0 9.316-7.552 16.868-16.868 16.868-9.316 0-16.868-7.552-16.868-16.868 0-9.315 7.552-16.867 16.868-16.867 9.316 0 16.868 7.552 16.868 16.867z" fill="url(#paint3_linear)"/><path d="M230.838 501.944c0 10.689-8.666 19.355-19.356 19.355-10.689 0-19.355-8.666-19.355-19.355 0-10.69 8.666-19.356 19.355-19.356 10.69 0 19.356 8.666 19.356 19.356z" fill="url(#paint4_linear)"/><path d="M642.244 501.944c0 10.689-8.666 19.355-19.356 19.355-10.69 0-19.355-8.666-19.355-19.355 0-10.69 8.665-19.356 19.355-19.356 10.69 0 19.356 8.666 19.356 19.356z" fill="url(#paint5_linear)"/><path d="M436.321 430.425c0 10.69-8.666 19.355-19.356 19.355-10.689 0-19.355-8.665-19.355-19.355 0-10.69 8.666-19.356 19.355-19.356 10.69 0 19.356 8.666 19.356 19.356z" fill="url(#paint6_linear)"/><path d="M825.511 23.546c0 9.315-7.552 16.867-16.867 16.867-9.316 0-16.868-7.552-16.868-16.867 0-9.316 7.552-16.868 16.868-16.868 9.315 0 16.867 7.552 16.867 16.867z" fill="url(#paint7_linear)"/><path d="M826.224 507.043c0 9.316-7.552 16.868-16.868 16.868-9.316 0-16.868-7.552-16.868-16.868 0-9.316 7.552-16.868 16.868-16.868 9.316 0 16.868 7.552 16.868 16.868z" fill="url(#paint8_linear)"/><path d="M278.641 488.752c0-8.612 6.981-15.593 15.592-15.593h8.239c8.611 0 15.592 6.981 15.592 15.593 0 8.611-6.981 15.592-15.592 15.592h-8.239c-8.611 0-15.592-6.981-15.592-15.592z" fill="url(#paint9_linear)"/><path d="M515.369 488.752c0-8.612 6.981-15.593 15.593-15.593h8.238c8.612 0 15.593 6.981 15.593 15.593 0 8.611-6.981 15.592-15.593 15.592h-8.238c-8.612 0-15.593-6.981-15.593-15.592z" fill="url(#paint10_linear)"/><path fill-rule="evenodd" clip-rule="evenodd" d="M754.91 411.318c-5.509 0-9.975 4.466-9.975 9.975v45.089c0 5.509 4.466 9.975 9.975 9.975h31.07c5.509 0 9.975-4.466 9.975-9.975v-45.089c0-5.509-4.466-9.975-9.975-9.975h-31.07zm15.779 15.971c-6.842 0-7.052 5.656-7.122 9.287h-9.496c0-16.129 11.801-17.526 16.2-17.526 9.496 0 17.037 5.586 17.037 15.641 0 8.518-5.517 12.847-10.334 16.129l-1.781 1.247c-5.41 3.785-8.31 5.814-9.321 7.9h21.505v8.658h-33.864c.349-5.795.768-11.87 11.521-19.69l.344-.25c8.685-6.309 12.154-8.83 12.154-14.343 0-3.282-2.095-7.053-6.843-7.053z" fill="url(#paint11_linear)"/><path d="M89.759 123.037h27.377l4.752 15.29h16.84L112.59 64.15H94.718L68.27 138.327h16.323l5.166-15.29zm13.637-42.151h.206l9.195 29.34H93.891l9.505-29.34z" fill="url(#paint12_linear)"/><path d="M170.215 74.868a2.14 2.14 0 012.139-2.139h565.187a2.139 2.139 0 110 4.279H172.354a2.14 2.14 0 01-2.139-2.14z" fill="url(#paint13_linear)"/><path d="M170.215 115.748a2.14 2.14 0 012.139-2.14h565.187a2.139 2.139 0 010 4.279H172.354a2.14 2.14 0 01-2.139-2.139z" fill="url(#paint14_linear)"/><path d="M170.215 95.308a2.14 2.14 0 012.139-2.14h565.187a2.139 2.139 0 110 4.28H172.354a2.14 2.14 0 01-2.139-2.14z" fill="url(#paint15_linear)"/><path d="M170.215 136.188a2.14 2.14 0 012.139-2.14h565.187a2.139 2.139 0 010 4.279H172.354a2.14 2.14 0 01-2.139-2.139z" fill="url(#paint16_linear)"/><path fill-rule="evenodd" clip-rule="evenodd" d="M641.731 176.332H191.59c-10.625 0-19.238 8.613-19.238 19.238v90.877c0 10.625 8.613 19.237 19.238 19.237h450.141c10.624 0 19.237-8.612 19.237-19.237V195.57c0-10.625-8.613-19.238-19.237-19.238zm-450.141-2.137c-11.805 0-21.375 9.57-21.375 21.375v90.877c0 11.805 9.57 21.375 21.375 21.375h450.141c11.805 0 21.374-9.57 21.374-21.375V195.57c0-11.805-9.569-21.375-21.374-21.375H191.59z" fill="url(#paint17_linear)"/><path d="M170.215 213.328H36.23V373.19c0 9.444 7.655 17.1 17.1 17.1h726.73c9.444 0 17.099-7.656 17.099-17.1V213.328H663.105v73.119c0 11.805-9.569 21.375-21.374 21.375H191.59c-11.805 0-21.375-9.57-21.375-21.375v-73.119z" fill="url(#paint18_linear)"/><path fill-rule="evenodd" clip-rule="evenodd" d="M237.922 295.678c29.889 0 54.118-24.23 54.118-54.118 0-29.889-24.229-54.118-54.118-54.118-29.888 0-54.118 24.229-54.118 54.118 0 29.888 24.23 54.118 54.118 54.118zm0 2.137c31.069 0 56.256-25.186 56.256-56.255 0-31.069-25.187-56.256-56.256-56.256s-56.255 25.187-56.255 56.256 25.186 56.255 56.255 56.255z" fill="url(#paint19_linear)"/><path fill-rule="evenodd" clip-rule="evenodd" d="M596.522 295.678c29.888 0 54.118-24.23 54.118-54.118 0-29.889-24.23-54.118-54.118-54.118-29.889 0-54.118 24.229-54.118 54.118 0 29.888 24.229 54.118 54.118 54.118zm0 2.137c31.069 0 56.255-25.186 56.255-56.255 0-31.069-25.186-56.256-56.255-56.256-31.069 0-56.256 25.187-56.256 56.256s25.187 56.255 56.256 56.255z" fill="url(#paint20_linear)"/><path fill-rule="evenodd" clip-rule="evenodd" d="M237.922 283.268c23.035 0 41.708-18.673 41.708-41.708s-18.673-41.708-41.708-41.708-41.708 18.673-41.708 41.708 18.673 41.708 41.708 41.708zm0 4.987c25.789 0 46.696-20.906 46.696-46.695 0-25.79-20.907-46.696-46.696-46.696-25.789 0-46.696 20.906-46.696 46.696 0 25.789 20.907 46.695 46.696 46.695z" fill="url(#paint21_linear)"/><path fill-rule="evenodd" clip-rule="evenodd" d="M596.522 283.268c23.035 0 41.708-18.673 41.708-41.708s-18.673-41.708-41.708-41.708-41.708 18.673-41.708 41.708 18.673 41.708 41.708 41.708zm0 4.987c25.789 0 46.696-20.906 46.696-46.695 0-25.79-20.907-46.696-46.696-46.696-25.789 0-46.696 20.906-46.696 46.696 0 25.789 20.907 46.695 46.696 46.695z" fill="url(#paint22_linear)"/><path d="M253.492 197.515l14.809 8.55-4.636 8.029a5.7 5.7 0 01-7.786 2.087l-4.937-2.85a5.7 5.7 0 01-2.086-7.787l4.636-8.029z" fill="url(#paint23_linear)"/><path d="M612.092 197.515l14.808 8.55-4.635 8.029a5.7 5.7 0 01-7.786 2.087l-4.937-2.85a5.7 5.7 0 01-2.086-7.787l4.636-8.029z" fill="url(#paint24_linear)"/><path d="M283.87 233.033v17.099h-9.271a5.7 5.7 0 01-5.7-5.7v-5.7a5.7 5.7 0 015.7-5.699h9.271z" fill="url(#paint25_linear)"/><path d="M642.47 233.033v17.099h-9.271a5.7 5.7 0 01-5.7-5.7v-5.7a5.7 5.7 0 015.7-5.699h9.271z" fill="url(#paint26_linear)"/><path d="M207.543 206.065l14.809-8.55 4.636 8.029a5.7 5.7 0 01-2.086 7.787l-4.937 2.85a5.7 5.7 0 01-7.786-2.087l-4.636-8.029z" fill="url(#paint27_linear)"/><path d="M566.143 206.065l14.809-8.55 4.636 8.029a5.7 5.7 0 01-2.087 7.787l-4.936 2.85a5.7 5.7 0 01-7.786-2.087l-4.636-8.029z" fill="url(#paint28_linear)"/><path d="M222.352 285.65l-14.809-8.55 4.636-8.029a5.7 5.7 0 017.786-2.087l4.937 2.85a5.7 5.7 0 012.086 7.786l-4.636 8.03z" fill="url(#paint29_linear)"/><path d="M580.952 285.65l-14.809-8.55 4.636-8.029a5.7 5.7 0 017.786-2.087l4.937 2.85a5.7 5.7 0 012.086 7.786l-4.636 8.03z" fill="url(#paint30_linear)"/><path d="M191.974 250.132v-17.099h9.271a5.7 5.7 0 015.7 5.699v5.7a5.7 5.7 0 01-5.7 5.7h-9.271z" fill="url(#paint31_linear)"/><path d="M550.573 250.132v-17.099h9.272a5.7 5.7 0 015.7 5.699v5.7a5.7 5.7 0 01-5.7 5.7h-9.272z" fill="url(#paint32_linear)"/><path d="M268.301 277.1l-14.809 8.55-4.636-8.03a5.7 5.7 0 012.086-7.786l4.937-2.85a5.7 5.7 0 017.786 2.087l4.636 8.029z" fill="url(#paint33_linear)"/><path d="M626.9 277.1l-14.808 8.55-4.636-8.03a5.7 5.7 0 012.086-7.786l4.937-2.85a5.7 5.7 0 017.786 2.087l4.635 8.029z" fill="url(#paint34_linear)"/><path fill-rule="evenodd" clip-rule="evenodd" d="M523.372 184.24H307.873v95.71h215.499v-95.71zm-221.199-5.7v107.11h226.899V178.54H302.173z" fill="url(#paint35_linear)"/><path d="M304.221 213.328H528.02v1.575H304.221v-1.575z" fill="url(#paint36_linear)"/><path d="M413.149 201.033h5.942v12.295h-5.942v-12.295z" fill="url(#paint37_linear)"/><path d="M328.745 201.033h5.942v12.295h-5.942v-12.295z" fill="url(#paint38_linear)"/><path d="M498.491 201.033h5.942v12.295h-5.942v-12.295z" fill="url(#paint39_linear)"/><path d="M307.836 274.892h215.536v5.058H307.873l-.037-5.058z" fill="url(#paint40_linear)"/><path d="M307.836 214.115v63.022c5.006-10.307 7.814-21.88 7.814-34.109 0-10.213-1.959-19.969-5.521-28.913h-2.293z" fill="url(#paint41_linear)"/><path d="M523.424 214.115v63.022c-4.73-10.308-7.383-21.88-7.383-34.109 0-10.213 1.851-19.969 5.217-28.913h2.166z" fill="url(#paint42_linear)"/><path d="M449.049 214.115h-58.717a155.804 155.804 0 012.425 27.445c0 12.893-.613 21.357-3.583 33.332h62.207c-2.97-11.975-4.757-20.439-4.757-33.332 0-9.366.832-18.537 2.425-27.445z" fill="url(#paint43_linear)"/><path fill-rule="evenodd" clip-rule="evenodd" d="M663.607 398.937H167.36a13.538 13.538 0 00-13.257 10.795l-24.767 119.726h572.672l-25.153-119.766a13.536 13.536 0 00-13.248-10.755zm15.34 10.315a15.676 15.676 0 00-15.34-12.453H167.36a15.676 15.676 0 00-15.35 12.5l-25.299 122.297h577.93l-25.694-122.344z" fill="url(#paint44_linear)"/><path d="M170.076 135.596h568.306m-568.306-20h568.306m-568.306-20h568.306m-568.306-20h568.306" stroke="#FEA520" stroke-width="4.233"/><defs><linearGradient id="paint0_linear" x1="416.965" y1="0" x2="416.965" y2="531.596" gradientUnits="userSpaceOnUse"><stop stop-color="#929292"/><stop offset="1" stop-color="#929292" stop-opacity="0"/></linearGradient><linearGradient id="paint1_linear" x1="416.965" y1="0" x2="416.965" y2="531.596" gradientUnits="userSpaceOnUse"><stop stop-color="#929292"/><stop offset="1" stop-color="#929292" stop-opacity="0"/></linearGradient><linearGradient id="paint2_linear" x1="416.965" y1="0" x2="416.965" y2="531.596" gradientUnits="userSpaceOnUse"><stop stop-color="#929292"/><stop offset="1" stop-color="#929292" stop-opacity="0"/></linearGradient><linearGradient id="paint3_linear" x1="416.965" y1="0" x2="416.965" y2="531.596" gradientUnits="userSpaceOnUse"><stop stop-color="#929292"/><stop offset="1" stop-color="#929292" stop-opacity="0"/></linearGradient><linearGradient id="paint4_linear" x1="416.965" y1="0" x2="416.965" y2="531.596" gradientUnits="userSpaceOnUse"><stop stop-color="#929292"/><stop offset="1" stop-color="#929292" stop-opacity="0"/></linearGradient><linearGradient id="paint5_linear" x1="416.965" y1="0" x2="416.965" y2="531.596" gradientUnits="userSpaceOnUse"><stop stop-color="#929292"/><stop offset="1" stop-color="#929292" stop-opacity="0"/></linearGradient><linearGradient id="paint6_linear" x1="416.965" y1="0" x2="416.965" y2="531.596" gradientUnits="userSpaceOnUse"><stop stop-color="#929292"/><stop offset="1" stop-color="#929292" stop-opacity="0"/></linearGradient><linearGradient id="paint7_linear" x1="416.965" y1="0" x2="416.965" y2="531.596" gradientUnits="userSpaceOnUse"><stop stop-color="#929292"/><stop offset="1" stop-color="#929292" stop-opacity="0"/></linearGradient><linearGradient id="paint8_linear" x1="416.965" y1="0" x2="416.965" y2="531.596" gradientUnits="userSpaceOnUse"><stop stop-color="#929292"/><stop offset="1" stop-color="#929292" stop-opacity="0"/></linearGradient><linearGradient id="paint9_linear" x1="416.965" y1="0" x2="416.965" y2="531.596" gradientUnits="userSpaceOnUse"><stop stop-color="#929292"/><stop offset="1" stop-color="#929292" stop-opacity="0"/></linearGradient><linearGradient id="paint10_linear" x1="416.965" y1="0" x2="416.965" y2="531.596" gradientUnits="userSpaceOnUse"><stop stop-color="#929292"/><stop offset="1" stop-color="#929292" stop-opacity="0"/></linearGradient><linearGradient id="paint11_linear" x1="416.965" y1="0" x2="416.965" y2="531.596" gradientUnits="userSpaceOnUse"><stop stop-color="#929292"/><stop offset="1" stop-color="#929292" stop-opacity="0"/></linearGradient><linearGradient id="paint12_linear" x1="416.965" y1="0" x2="416.965" y2="531.596" gradientUnits="userSpaceOnUse"><stop stop-color="#929292"/><stop offset="1" stop-color="#929292" stop-opacity="0"/></linearGradient><linearGradient id="paint13_linear" x1="416.965" y1="0" x2="416.965" y2="531.596" gradientUnits="userSpaceOnUse"><stop stop-color="#929292"/><stop offset="1" stop-color="#929292" stop-opacity="0"/></linearGradient><linearGradient id="paint14_linear" x1="416.965" y1="0" x2="416.965" y2="531.596" gradientUnits="userSpaceOnUse"><stop stop-color="#929292"/><stop offset="1" stop-color="#929292" stop-opacity="0"/></linearGradient><linearGradient id="paint15_linear" x1="416.965" y1="0" x2="416.965" y2="531.596" gradientUnits="userSpaceOnUse"><stop stop-color="#929292"/><stop offset="1" stop-color="#929292" stop-opacity="0"/></linearGradient><linearGradient id="paint16_linear" x1="416.965" y1="0" x2="416.965" y2="531.596" gradientUnits="userSpaceOnUse"><stop stop-color="#929292"/><stop offset="1" stop-color="#929292" stop-opacity="0"/></linearGradient><linearGradient id="paint17_linear" x1="416.965" y1="0" x2="416.965" y2="531.596" gradientUnits="userSpaceOnUse"><stop stop-color="#929292"/><stop offset="1" stop-color="#929292" stop-opacity="0"/></linearGradient><linearGradient id="paint18_linear" x1="416.965" y1="0" x2="416.965" y2="531.596" gradientUnits="userSpaceOnUse"><stop stop-color="#929292"/><stop offset="1" stop-color="#929292" stop-opacity="0"/></linearGradient><linearGradient id="paint19_linear" x1="416.965" y1="0" x2="416.965" y2="531.596" gradientUnits="userSpaceOnUse"><stop stop-color="#929292"/><stop offset="1" stop-color="#929292" stop-opacity="0"/></linearGradient><linearGradient id="paint20_linear" x1="416.965" y1="0" x2="416.965" y2="531.596" gradientUnits="userSpaceOnUse"><stop stop-color="#929292"/><stop offset="1" stop-color="#929292" stop-opacity="0"/></linearGradient><linearGradient id="paint21_linear" x1="416.965" y1="0" x2="416.965" y2="531.596" gradientUnits="userSpaceOnUse"><stop stop-color="#929292"/><stop offset="1" stop-color="#929292" stop-opacity="0"/></linearGradient><linearGradient id="paint22_linear" x1="416.965" y1="0" x2="416.965" y2="531.596" gradientUnits="userSpaceOnUse"><stop stop-color="#929292"/><stop offset="1" stop-color="#929292" stop-opacity="0"/></linearGradient><linearGradient id="paint23_linear" x1="416.965" y1="0" x2="416.965" y2="531.596" gradientUnits="userSpaceOnUse"><stop stop-color="#929292"/><stop offset="1" stop-color="#929292" stop-opacity="0"/></linearGradient><linearGradient id="paint24_linear" x1="416.965" y1="0" x2="416.965" y2="531.596" gradientUnits="userSpaceOnUse"><stop stop-color="#929292"/><stop offset="1" stop-color="#929292" stop-opacity="0"/></linearGradient><linearGradient id="paint25_linear" x1="416.965" y1="0" x2="416.965" y2="531.596" gradientUnits="userSpaceOnUse"><stop stop-color="#929292"/><stop offset="1" stop-color="#929292" stop-opacity="0"/></linearGradient><linearGradient id="paint26_linear" x1="416.965" y1="0" x2="416.965" y2="531.596" gradientUnits="userSpaceOnUse"><stop stop-color="#929292"/><stop offset="1" stop-color="#929292" stop-opacity="0"/></linearGradient><linearGradient id="paint27_linear" x1="416.965" y1="0" x2="416.965" y2="531.596" gradientUnits="userSpaceOnUse"><stop stop-color="#929292"/><stop offset="1" stop-color="#929292" stop-opacity="0"/></linearGradient><linearGradient id="paint28_linear" x1="416.965" y1="0" x2="416.965" y2="531.596" gradientUnits="userSpaceOnUse"><stop stop-color="#929292"/><stop offset="1" stop-color="#929292" stop-opacity="0"/></linearGradient><linearGradient id="paint29_linear" x1="416.965" y1="0" x2="416.965" y2="531.596" gradientUnits="userSpaceOnUse"><stop stop-color="#929292"/><stop offset="1" stop-color="#929292" stop-opacity="0"/></linearGradient><linearGradient id="paint30_linear" x1="416.965" y1="0" x2="416.965" y2="531.596" gradientUnits="userSpaceOnUse"><stop stop-color="#929292"/><stop offset="1" stop-color="#929292" stop-opacity="0"/></linearGradient><linearGradient id="paint31_linear" x1="416.965" y1="0" x2="416.965" y2="531.596" gradientUnits="userSpaceOnUse"><stop stop-color="#929292"/><stop offset="1" stop-color="#929292" stop-opacity="0"/></linearGradient><linearGradient id="paint32_linear" x1="416.965" y1="0" x2="416.965" y2="531.596" gradientUnits="userSpaceOnUse"><stop stop-color="#929292"/><stop offset="1" stop-color="#929292" stop-opacity="0"/></linearGradient><linearGradient id="paint33_linear" x1="416.965" y1="0" x2="416.965" y2="531.596" gradientUnits="userSpaceOnUse"><stop stop-color="#929292"/><stop offset="1" stop-color="#929292" stop-opacity="0"/></linearGradient><linearGradient id="paint34_linear" x1="416.965" y1="0" x2="416.965" y2="531.596" gradientUnits="userSpaceOnUse"><stop stop-color="#929292"/><stop offset="1" stop-color="#929292" stop-opacity="0"/></linearGradient><linearGradient id="paint35_linear" x1="416.965" y1="0" x2="416.965" y2="531.596" gradientUnits="userSpaceOnUse"><stop stop-color="#929292"/><stop offset="1" stop-color="#929292" stop-opacity="0"/></linearGradient><linearGradient id="paint36_linear" x1="416.965" y1="0" x2="416.965" y2="531.596" gradientUnits="userSpaceOnUse"><stop stop-color="#929292"/><stop offset="1" stop-color="#929292" stop-opacity="0"/></linearGradient><linearGradient id="paint37_linear" x1="416.965" y1="0" x2="416.965" y2="531.596" gradientUnits="userSpaceOnUse"><stop stop-color="#929292"/><stop offset="1" stop-color="#929292" stop-opacity="0"/></linearGradient><linearGradient id="paint38_linear" x1="416.965" y1="0" x2="416.965" y2="531.596" gradientUnits="userSpaceOnUse"><stop stop-color="#929292"/><stop offset="1" stop-color="#929292" stop-opacity="0"/></linearGradient><linearGradient id="paint39_linear" x1="416.965" y1="0" x2="416.965" y2="531.596" gradientUnits="userSpaceOnUse"><stop stop-color="#929292"/><stop offset="1" stop-color="#929292" stop-opacity="0"/></linearGradient><linearGradient id="paint40_linear" x1="416.965" y1="0" x2="416.965" y2="531.596" gradientUnits="userSpaceOnUse"><stop stop-color="#929292"/><stop offset="1" stop-color="#929292" stop-opacity="0"/></linearGradient><linearGradient id="paint41_linear" x1="416.965" y1="0" x2="416.965" y2="531.596" gradientUnits="userSpaceOnUse"><stop stop-color="#929292"/><stop offset="1" stop-color="#929292" stop-opacity="0"/></linearGradient><linearGradient id="paint42_linear" x1="416.965" y1="0" x2="416.965" y2="531.596" gradientUnits="userSpaceOnUse"><stop stop-color="#929292"/><stop offset="1" stop-color="#929292" stop-opacity="0"/></linearGradient><linearGradient id="paint43_linear" x1="416.965" y1="0" x2="416.965" y2="531.596" gradientUnits="userSpaceOnUse"><stop stop-color="#929292"/><stop offset="1" stop-color="#929292" stop-opacity="0"/></linearGradient><linearGradient id="paint44_linear" x1="416.965" y1="0" x2="416.965" y2="531.596" gradientUnits="userSpaceOnUse"><stop stop-color="#929292"/><stop offset="1" stop-color="#929292" stop-opacity="0"/></linearGradient></defs></svg>