<svg width="199" height="400" fill="none" xmlns="http://www.w3.org/2000/svg"><path d="M-121 320.048h79.952V400H-121v-79.952zM38.904 160.144h79.953v79.952H38.904v-79.952zm-79.952 79.952h79.953v79.952h-79.953v-79.952zM118.857 80.191h79.952v79.953h-79.952V80.191z" fill="#AFAFAF"/><path d="M-121 240.094h79.952v79.952H-121v-79.952z" fill="url(#paint0_linear)"/><path d="M39 .237h79.952V80.19H39V.237z" fill="url(#paint1_linear)"/><path d="M198.809 240.094h-79.952v79.952h79.952v-79.952z" fill="url(#paint2_linear)"/><path d="M-41.048.237H-121V80.19h79.952V.237z" fill="url(#paint3_linear)"/><defs><linearGradient id="paint0_linear" x1="38.904" y1=".237" x2="38.904" y2="320.046" gradientUnits="userSpaceOnUse"><stop stop-color="#929292"/><stop offset="1" stop-color="#929292" stop-opacity="0"/></linearGradient><linearGradient id="paint1_linear" x1="38.904" y1=".237" x2="38.904" y2="320.046" gradientUnits="userSpaceOnUse"><stop stop-color="#929292"/><stop offset="1" stop-color="#929292" stop-opacity="0"/></linearGradient><linearGradient id="paint2_linear" x1="38.904" y1=".237" x2="38.904" y2="320.046" gradientUnits="userSpaceOnUse"><stop stop-color="#929292"/><stop offset="1" stop-color="#929292" stop-opacity="0"/></linearGradient><linearGradient id="paint3_linear" x1="38.904" y1=".237" x2="38.904" y2="320.046" gradientUnits="userSpaceOnUse"><stop stop-color="#929292"/><stop offset="1" stop-color="#929292" stop-opacity="0"/></linearGradient></defs></svg>