<svg width="74" height="48" fill="none" xmlns="http://www.w3.org/2000/svg"><path d="M3 1h68a2 2 0 012 2v42a2 2 0 01-2 2H59.17a2 2 0 01-1.825-1.183l-2.358-5.268a4 4 0 00-3.65-2.365H22.663a4 4 0 00-3.651 2.365l-2.358 5.268A2 2 0 0114.829 47H3a2 2 0 01-2-2V3a2 2 0 012-2z" stroke="#FEA520" stroke-width="2"/><circle cx="9.5" cy="9.5" r="2.5" fill="#FEA520"/><circle cx="20.5" cy="23.5" r="5.5" fill="#1A1A1A" stroke="#FEA520" stroke-width="2"/><circle cx="53.5" cy="23.5" r="5.5" fill="#1A1A1A" stroke="#FEA520" stroke-width="2"/><mask id="a" maskUnits="userSpaceOnUse" x="20" y="17" width="34" height="13" fill="#000"><path fill="#fff" d="M20 17h34v13H20z"/><path fill-rule="evenodd" clip-rule="evenodd" d="M49 19H25c1.054 1.305 1.664 2.847 1.664 4.5S26.054 26.695 25 28h24c-1.054-1.305-1.664-2.847-1.664-4.5s.61-3.195 1.664-4.5z"/></mask><path fill-rule="evenodd" clip-rule="evenodd" d="M49 19H25c1.054 1.305 1.664 2.847 1.664 4.5S26.054 26.695 25 28h24c-1.054-1.305-1.664-2.847-1.664-4.5s.61-3.195 1.664-4.5z" fill="#1A1A1A"/><path d="M25 19v-2h-4.187l2.631 3.257L25 19zm24 0l1.556 1.257L53.186 17H49v2zm-24 9l-1.556-1.257L20.814 30H25v-2zm24 0v2h4.187l-2.631-3.257L49 28zm-24-7h24v-4H25v4zm3.664 2.5c0-2.165-.803-4.141-2.108-5.757l-3.112 2.514c.804.994 1.22 2.103 1.22 3.243h4zm-2.108 5.757c1.305-1.616 2.108-3.592 2.108-5.757h-4c0 1.14-.416 2.249-1.22 3.243l3.112 2.514zM49 26H25v4h24v-4zm1.556.743c-.804-.994-1.22-2.103-1.22-3.243h-4c0 2.165.803 4.141 2.108 5.757l3.112-2.514zm-1.22-3.243c0-1.14.416-2.249 1.22-3.243l-3.112-2.514c-1.305 1.616-2.108 3.592-2.108 5.757h4z" fill="#FEA520" mask="url(#a)"/><circle cx="65.5" cy="9.5" r="2.5" fill="#FEA520"/><path d="M12 47h12m17 0h23m-34 0h5" stroke="#FEA520" stroke-width="2" stroke-linecap="round"/></svg>