<svg width="792" height="671" fill="none" xmlns="http://www.w3.org/2000/svg"><g clip-path="url(#clip0)"><path d="M70.307 95.867V101H68.68V88.203h4.148a5.466 5.466 0 011.626.273c.516.17.967.416 1.354.738.386.322.691.72.914 1.195.228.475.342 1.02.342 1.635s-.114 1.16-.342 1.635a3.45 3.45 0 01-.914 1.186 4.088 4.088 0 01-1.354.739c-.51.17-1.052.257-1.626.263h-2.522zm0-1.336h2.522a3.26 3.26 0 001.037-.175 2.54 2.54 0 00.826-.493c.235-.21.416-.466.545-.764.135-.305.203-.65.203-1.038 0-.386-.068-.735-.203-1.045a2.222 2.222 0 00-.545-.791 2.35 2.35 0 00-.826-.501 3.104 3.104 0 00-1.037-.185h-2.522v4.992zm17.314 4.79c-.539.633-1.157 1.102-1.854 1.407a5.576 5.576 0 01-2.294.448 4.627 4.627 0 01-1.46-.238 4.373 4.373 0 01-1.186-.641 4.684 4.684 0 01-.923-.967 6.261 6.261 0 01-.668-1.195 7.52 7.52 0 01-.404-1.354 8.42 8.42 0 01-.14-1.432v-1.486c.005-.474.046-.946.123-1.415.082-.474.204-.928.369-1.362.164-.434.369-.835.615-1.204a4.084 4.084 0 012.048-1.617c.433-.159.92-.238 1.459-.238.597 0 1.148.094 1.652.282a3.873 3.873 0 012.224 2.03c.228.48.369 1.02.421 1.617h-1.608a4.49 4.49 0 00-.299-1.02 2.533 2.533 0 00-.536-.808 2.256 2.256 0 00-.782-.519 2.712 2.712 0 00-1.064-.193c-.386 0-.729.067-1.028.202a2.49 2.49 0 00-.782.528 2.903 2.903 0 00-.554.782 5.39 5.39 0 00-.36.931 6.462 6.462 0 00-.202 1.002 8.23 8.23 0 00-.062.985v1.503c.006.322.032.656.08 1.002.052.34.131.673.237 1.002.105.328.24.638.404.931.164.293.36.551.589.774.234.222.504.401.808.536.305.129.65.196 1.037.202a5.61 5.61 0 00.695-.027 3.56 3.56 0 00.712-.14c.228-.07.442-.164.641-.281.2-.123.367-.282.501-.475l.018-2.874h-2.602v-1.371h4.149l.026 4.693zm4.307-3.454V101h-1.626V88.203h4.148a5.466 5.466 0 011.626.273c.516.17.967.416 1.354.738.386.322.691.72.914 1.195.228.475.343 1.02.343 1.635s-.115 1.16-.343 1.635a3.45 3.45 0 01-.914 1.186 4.088 4.088 0 01-1.354.739c-.51.17-1.052.257-1.626.263h-2.522zm0-1.336h2.522a3.26 3.26 0 001.037-.175 2.54 2.54 0 00.827-.493 2.16 2.16 0 00.544-.764c.135-.305.203-.65.203-1.038 0-.386-.068-.735-.203-1.045a2.222 2.222 0 00-.544-.791 2.35 2.35 0 00-.827-.501 3.104 3.104 0 00-1.037-.185h-2.522v4.992zm22.913.528l-1.424 1.617V101h-1.661V88.203h1.661v6.25l1.239-1.548 3.753-4.702h1.978l-4.474 5.599 4.773 7.198h-1.978l-3.867-5.941zm14.783.026h-5.344v4.535h6.232V101h-7.858V88.203h7.779v1.389h-6.153v4.113h5.344v1.38zm7.541-.457l2.918-6.425h1.846l-3.982 8.025-.026 4.772h-1.512l-.026-4.772-3.982-8.025h1.855l2.909 6.425z" fill="#fff"/><path stroke="#fff" d="M67.502 114.5h657v267h-657z"/></g><path fill-rule="evenodd" clip-rule="evenodd" d="M768.447 2.137H23.512c-11.805 0-21.375 9.57-21.375 21.375l.002 623.476c0 11.805 9.57 21.375 21.375 21.375H768.45c11.805 0 21.375-9.57 21.375-21.375l-.002-623.476c0-11.805-9.57-21.375-21.375-21.375zM23.512 0C10.527 0 0 10.527 0 23.512l.002 623.476c0 12.985 10.527 23.512 23.512 23.512H768.45c12.985 0 23.512-10.527 23.512-23.512l-.002-623.476C791.959 10.527 781.432 0 768.447 0H23.512z" fill="url(#paint0_linear)"/><path fill-rule="evenodd" clip-rule="evenodd" d="M754.525 512.881l-.002-429.763a14.96 14.96 0 00-4.687-10.875l-30.548-28.864a14.962 14.962 0 00-10.276-4.087H80.319c-4.02 0-7.87 1.617-10.684 4.487l-27.92 28.48a14.963 14.963 0 00-4.279 10.475l.002 430.147c0 8.264 6.7 14.962 14.963 14.962h687.161c8.264 0 14.963-6.698 14.963-14.962zM40.188 70.763a17.1 17.1 0 00-4.889 11.97l.002 430.148c0 9.444 7.656 17.1 17.1 17.1h687.161c9.444 0 17.1-7.656 17.1-17.1l-.002-429.763c0-4.703-1.937-9.199-5.356-12.429l-30.548-28.864a17.1 17.1 0 00-11.744-4.67H80.319a17.1 17.1 0 00-12.21 5.128l-27.921 28.48z" fill="url(#paint1_linear)"/><path d="M40.285 23.546c0 9.315-7.552 16.867-16.868 16.867-9.316 0-16.868-7.552-16.868-16.867 0-9.316 7.552-16.868 16.868-16.868 9.316 0 16.868 7.552 16.868 16.867z" fill="url(#paint2_linear)"/><path d="M41.557 646.196c0 9.315-7.552 16.867-16.868 16.867-9.316 0-16.868-7.552-16.868-16.867 0-9.316 7.552-16.868 16.868-16.868 9.316 0 16.868 7.552 16.868 16.868z" fill="url(#paint3_linear)"/><path d="M229.909 640.848c0 10.689-8.666 19.355-19.355 19.355-10.69 0-19.356-8.666-19.356-19.355 0-10.69 8.666-19.356 19.356-19.356 10.689 0 19.355 8.666 19.355 19.356z" fill="url(#paint4_linear)"/><path d="M641.315 640.848c0 10.689-8.666 19.355-19.355 19.355-10.69 0-19.356-8.666-19.356-19.355 0-10.69 8.666-19.356 19.356-19.356 10.689 0 19.355 8.666 19.355 19.356z" fill="url(#paint5_linear)"/><path d="M435.392 569.329c0 10.69-8.666 19.356-19.355 19.356-10.69 0-19.356-8.666-19.356-19.356 0-10.69 8.666-19.356 19.356-19.356 10.689 0 19.355 8.666 19.355 19.356z" fill="url(#paint6_linear)"/><path d="M784.47 23.546c0 9.315-7.551 16.867-16.867 16.867s-16.868-7.552-16.868-16.867c0-9.316 7.552-16.868 16.868-16.868 9.316 0 16.867 7.552 16.867 16.867z" fill="url(#paint7_linear)"/><path d="M785.185 645.947c0 9.316-7.552 16.868-16.868 16.868-9.316 0-16.868-7.552-16.868-16.868 0-9.316 7.552-16.868 16.868-16.868 9.316 0 16.868 7.552 16.868 16.868z" fill="url(#paint8_linear)"/><path d="M277.712 627.656c0-8.612 6.981-15.593 15.593-15.593h8.238c8.612 0 15.593 6.981 15.593 15.593 0 8.611-6.981 15.592-15.593 15.592h-8.238c-8.612 0-15.593-6.981-15.593-15.592z" fill="url(#paint9_linear)"/><path d="M514.441 627.656c0-8.612 6.981-15.593 15.592-15.593h8.239c8.611 0 15.592 6.981 15.592 15.593 0 8.611-6.981 15.592-15.592 15.592h-8.239c-8.611 0-15.592-6.981-15.592-15.592z" fill="url(#paint10_linear)"/><path fill-rule="evenodd" clip-rule="evenodd" d="M713.871 550.223c-5.509 0-9.975 4.465-9.975 9.974v45.089c0 5.509 4.466 9.975 9.975 9.975h31.07c5.509 0 9.975-4.466 9.975-9.975v-45.089c0-5.509-4.466-9.974-9.975-9.974h-31.07zm15.779 15.97c-6.842 0-7.052 5.656-7.122 9.287h-9.496c0-16.129 11.801-17.526 16.2-17.526 9.496 0 17.037 5.586 17.037 15.641 0 8.518-5.517 12.848-10.334 16.129l-1.78 1.247c-5.411 3.785-8.311 5.814-9.322 7.9h21.505v8.658h-33.864c.349-5.795.768-11.87 11.521-19.69l.344-.25c8.685-6.309 12.154-8.83 12.154-14.343 0-3.282-2.095-7.053-6.843-7.053z" fill="url(#paint11_linear)"/><path fill-rule="evenodd" clip-rule="evenodd" d="M662.678 537.841H166.431a13.537 13.537 0 00-13.256 10.795l-24.768 119.727h572.672l-25.153-119.767a13.537 13.537 0 00-13.248-10.755zm15.34 10.316a15.675 15.675 0 00-15.34-12.453H166.431a15.673 15.673 0 00-15.349 12.499l-25.3 122.297h577.93l-25.694-122.343z" fill="url(#paint12_linear)"/><defs><linearGradient id="paint0_linear" x1="416.036" y1="0" x2="416.036" y2="531.596" gradientUnits="userSpaceOnUse"><stop stop-color="#929292"/><stop offset="1" stop-color="#929292" stop-opacity="0"/></linearGradient><linearGradient id="paint1_linear" x1="416.036" y1="0" x2="416.036" y2="531.596" gradientUnits="userSpaceOnUse"><stop stop-color="#929292"/><stop offset="1" stop-color="#929292" stop-opacity="0"/></linearGradient><linearGradient id="paint2_linear" x1="416.036" y1="0" x2="416.036" y2="531.596" gradientUnits="userSpaceOnUse"><stop stop-color="#929292"/><stop offset="1" stop-color="#929292" stop-opacity="0"/></linearGradient><linearGradient id="paint3_linear" x1="416.036" y1="0" x2="416.036" y2="531.596" gradientUnits="userSpaceOnUse"><stop stop-color="#929292"/><stop offset="1" stop-color="#929292" stop-opacity="0"/></linearGradient><linearGradient id="paint4_linear" x1="416.036" y1="0" x2="416.036" y2="531.596" gradientUnits="userSpaceOnUse"><stop stop-color="#929292"/><stop offset="1" stop-color="#929292" stop-opacity="0"/></linearGradient><linearGradient id="paint5_linear" x1="416.036" y1="0" x2="416.036" y2="531.596" gradientUnits="userSpaceOnUse"><stop stop-color="#929292"/><stop offset="1" stop-color="#929292" stop-opacity="0"/></linearGradient><linearGradient id="paint6_linear" x1="416.036" y1="0" x2="416.036" y2="531.596" gradientUnits="userSpaceOnUse"><stop stop-color="#929292"/><stop offset="1" stop-color="#929292" stop-opacity="0"/></linearGradient><linearGradient id="paint7_linear" x1="416.036" y1="0" x2="416.036" y2="531.596" gradientUnits="userSpaceOnUse"><stop stop-color="#929292"/><stop offset="1" stop-color="#929292" stop-opacity="0"/></linearGradient><linearGradient id="paint8_linear" x1="416.036" y1="0" x2="416.036" y2="531.596" gradientUnits="userSpaceOnUse"><stop stop-color="#929292"/><stop offset="1" stop-color="#929292" stop-opacity="0"/></linearGradient><linearGradient id="paint9_linear" x1="416.036" y1="0" x2="416.036" y2="531.596" gradientUnits="userSpaceOnUse"><stop stop-color="#929292"/><stop offset="1" stop-color="#929292" stop-opacity="0"/></linearGradient><linearGradient id="paint10_linear" x1="416.036" y1="0" x2="416.036" y2="531.596" gradientUnits="userSpaceOnUse"><stop stop-color="#929292"/><stop offset="1" stop-color="#929292" stop-opacity="0"/></linearGradient><linearGradient id="paint11_linear" x1="416.036" y1="0" x2="416.036" y2="531.596" gradientUnits="userSpaceOnUse"><stop stop-color="#929292"/><stop offset="1" stop-color="#929292" stop-opacity="0"/></linearGradient><linearGradient id="paint12_linear" x1="416.036" y1="0" x2="416.036" y2="531.596" gradientUnits="userSpaceOnUse"><stop stop-color="#929292"/><stop offset="1" stop-color="#929292" stop-opacity="0"/></linearGradient><clipPath id="clip0"><path fill="#fff" transform="translate(67.002 82)" d="M0 0h658v300H0z"/></clipPath></defs></svg>